# xmcd
#
# Track frame offsets: 
#        150
#        6081
#        24760
#        40049
#        60550
#        61093
#        81477
#        103056
#        124544
#        142116
#        156816
#        175534
#        193797
#        207094
#        226618
#        247087
#
# Disc length: 3589 seconds
#
# Revision: 0
# Processed by: cddbd v1.5.1PL0 Copyright (c) Steve Scherf et al.
# Submitted via: ExactAudioCopy v0.95b2
#
DISCID=c70e0310
DTITLE=Various Artist - Будем жить
DYEAR=2005
DGENRE=
TTITLE0=Вступление к 1 части
TTITLE1=Алексанр Розенбаум/На перевале дождь
TTITLE2=Сергей Трофимов/Алешка
TTITLE3=Александр Розенбаум/Вечерняя застольная
TTITLE4=Вступление ко 2 части
TTITLE5=Александр Маршал/Минутка
TTITLE6=Александр Иванов/Цветы
TTITLE7=Сергей Трофимов/Блюз - спецназ
TTITLE8=Александр Иванов/Слова и ноты
TTITLE9=Александр Розенбаум/Перья алые бинтов
TTITLE10=Александр Маршал/Саня
TTITLE11=Александр Иванов/Ангел над городом
TTITLE12=Сергей Трофимов/Дембельская
TTITLE13=Александр Маршал/Домой
TTITLE14=Александр Иванов/Свет негасимой свечи
TTITLE15=Александр Розенбаум/Мы живы
EXTD=
EXTT0=
EXTT1=
EXTT2=
EXTT3=
EXTT4=
EXTT5=
EXTT6=
EXTT7=
EXTT8=
EXTT9=
EXTT10=
EXTT11=
EXTT12=
EXTT13=
EXTT14=
EXTT15=
PLAYORDER=
